<svg width="320" height="420" version="1.1" viewBox="0 0 84.667 111.12" xmlns="http://www.w3.org/2000/svg">
<g transform="translate(0 -185.87)">
<rect x="1.939e-5" y="222.92" width="84.659" height="37.042" style="fill:none;paint-order:normal"/>
<path d="m52.923 228.21v26.444l0.06007-0.0269v0.0315a26.489 26.466 0 0 0 26.379-26.449h-5.2977a21.191 21.173 0 0 1-15.843 20.459v-20.459z" style="fill:#292929;paint-order:normal"/>
<path d="m32.795 238.79a31.787 31.759 0 0 1 2.4492 5.2931h12.44v-5.2931z" style="fill:#292929;paint-order:normal"/>
<path d="m36.646 249.37a31.787 31.759 0 0 1 0.44962 5.2931h10.588v-5.2931z" style="fill:#292929;paint-order:normal"/>
<path d="m5.3093 228.2v26.466h26.489c0-14.612-11.853-26.459-26.478-26.465zm5.3092 5.9956c7.4458 1.929 13.261 7.7379 15.193 15.177h-15.193z" style="fill:#292929;paint-order:normal"/>
<path d="m22.859 228.21a31.787 31.759 0 0 1 6.1002 5.2931h18.726v-5.2931z" style="fill:#292929;paint-order:normal"/>
<rect x="1.939e-5" y="222.92" width="84.659" height="37.042" style="fill:none;paint-order:normal"/>
<path d="m52.923 228.21v26.444l0.06007-0.0269v0.0315a26.489 26.466 0 0 0 26.379-26.449h-5.2977a21.191 21.173 0 0 1-15.843 20.459v-20.459z" style="fill:#292929;paint-order:normal"/>
<path d="m32.795 238.79a31.787 31.759 0 0 1 2.4492 5.2931h12.44v-5.2931z" style="fill:#292929;paint-order:normal"/>
<path d="m36.646 249.37a31.787 31.759 0 0 1 0.44962 5.2931h10.588v-5.2931z" style="fill:#292929;paint-order:normal"/>
<path d="m5.3093 228.2v26.466h26.489c0-14.612-11.853-26.459-26.478-26.465zm5.3092 5.9956c7.4458 1.929 13.261 7.7379 15.193 15.177h-15.193z" style="fill:#292929;paint-order:normal"/>
<path d="m22.859 228.21a31.787 31.759 0 0 1 6.1002 5.2931h18.726v-5.2931z" style="fill:#292929;paint-order:normal"/>
<rect x="1.939e-5" y="259.96" width="84.659" height="37.042" style="fill:none;paint-order:normal"/>
<path d="m52.923 265.25v26.444l0.06007-0.0269v0.0315a26.489 26.466 0 0 0 26.379-26.449h-5.2977a21.191 21.173 0 0 1-15.843 20.459v-20.459z" style="fill:#f2f2f2;paint-order:normal"/>
<path d="m32.795 275.83a31.787 31.759 0 0 1 2.4492 5.2931h12.44v-5.2931z" style="fill:#f2f2f2;paint-order:normal"/>
<path d="m36.646 286.41a31.787 31.759 0 0 1 0.44962 5.2931h10.588v-5.2931z" style="fill:#f2f2f2;paint-order:normal"/>
<path d="m5.3093 265.24v26.466h26.489c0-14.612-11.853-26.459-26.478-26.465zm5.3092 5.9956c7.4458 1.929 13.261 7.7379 15.193 15.177h-15.193z" style="fill:#f2f2f2;paint-order:normal"/>
<path d="m22.859 265.25a31.787 31.759 0 0 1 6.1002 5.2931h18.726v-5.2931z" style="fill:#f2f2f2;paint-order:normal"/>
<rect x="1.939e-5" y="259.96" width="84.659" height="37.042" style="fill:none;paint-order:normal"/>
<path d="m52.923 265.25v26.444l0.06007-0.0269v0.0315a26.489 26.466 0 0 0 26.379-26.449h-5.2977a21.191 21.173 0 0 1-15.843 20.459v-20.459z" style="fill:#fafafa;paint-order:normal"/>
<path d="m32.795 275.83a31.787 31.759 0 0 1 2.4492 5.2931h12.44v-5.2931z" style="fill:#fafafa;paint-order:normal"/>
<path d="m36.646 286.41a31.787 31.759 0 0 1 0.44962 5.2931h10.588v-5.2931z" style="fill:#fafafa;paint-order:normal"/>
<path d="m5.3093 265.24v26.466h26.489c0-14.612-11.853-26.459-26.478-26.465zm5.3092 5.9956c7.4458 1.929 13.261 7.7379 15.193 15.177h-15.193z" style="fill:#fafafa;paint-order:normal"/>
<path d="m22.859 265.25a31.787 31.759 0 0 1 6.1002 5.2931h18.726v-5.2931z" style="fill:#fafafa;paint-order:normal"/>
<path d="m18.484 189.88 3.6428 2.4248c2.1567 1.4355 4.1209 3.14 5.8457 5.0724l0.39526 0.44248h20.644v-7.9397z" style="color-rendering:auto;color:#000000;dominant-baseline:auto;fill:#fafafa;font-feature-settings:normal;font-variant-alternates:normal;font-variant-caps:normal;font-variant-ligatures:normal;font-variant-numeric:normal;font-variant-position:normal;image-rendering:auto;isolation:auto;mix-blend-mode:normal;paint-order:normal;shape-padding:0;shape-rendering:auto;solid-color:#000000;text-decoration-color:#000000;text-decoration-line:none;text-decoration-style:solid;text-indent:0;text-orientation:mixed;text-transform:none;white-space:normal"/>
<path d="m30.499 200.46 1.1516 1.9865c0.93638 1.6154 1.7218 3.3132 2.3467 5.0724l0.31306 0.88082h14.7v-7.9397z" style="color-rendering:auto;color:#000000;dominant-baseline:auto;fill:#fafafa;font-feature-settings:normal;font-variant-alternates:normal;font-variant-caps:normal;font-variant-ligatures:normal;font-variant-numeric:normal;font-variant-position:normal;image-rendering:auto;isolation:auto;mix-blend-mode:normal;paint-order:normal;shape-padding:0;shape-rendering:auto;solid-color:#000000;text-decoration-color:#000000;text-decoration-line:none;text-decoration-style:solid;text-indent:0;text-orientation:mixed;text-transform:none;white-space:normal"/>
<path d="m35.08 211.04 0.2628 1.545c0.28513 1.6759 0.4294 3.3725 0.431 5.0724l1e-3 1.3223h13.236v-7.9397z" style="color-rendering:auto;color:#000000;dominant-baseline:auto;fill:#fafafa;font-feature-settings:normal;font-variant-alternates:normal;font-variant-caps:normal;font-variant-ligatures:normal;font-variant-numeric:normal;font-variant-position:normal;image-rendering:auto;isolation:auto;mix-blend-mode:normal;paint-order:normal;shape-padding:0;shape-rendering:auto;solid-color:#000000;text-decoration-color:#000000;text-decoration-line:none;text-decoration-style:solid;text-indent:0;text-orientation:mixed;text-transform:none;white-space:normal"/>
<path d="m3.9868 189.81v29.174h29.138v-1.3233c0-15.315-12.442-27.763-27.767-27.788zm7.9581 9.2118c5.624 1.9982 10.034 6.4035 12.035 12.022h-12.035z" style="color-rendering:auto;color:#000000;dominant-baseline:auto;fill:#fafafa;font-feature-settings:normal;font-variant-alternates:normal;font-variant-caps:normal;font-variant-ligatures:normal;font-variant-numeric:normal;font-variant-position:normal;image-rendering:auto;isolation:auto;mix-blend-mode:normal;paint-order:normal;shape-padding:0;shape-rendering:auto;solid-color:#000000;text-decoration-color:#000000;text-decoration-line:none;text-decoration-style:solid;text-indent:0;text-orientation:mixed;text-transform:none;white-space:normal"/>
<path d="m51.6 189.88v29.102c0.53422 0 1.6282-0.0191 1.6282-0.0191 15.182-0.19251 27.45-12.559 27.459-27.758v-1.3243h-7.9461v1.3217c-0.01101 8.4467-5.3468 15.878-13.194 18.668v-19.99z" style="color-rendering:auto;color:#000000;dominant-baseline:auto;fill:#fafafa;font-feature-settings:normal;font-variant-alternates:normal;font-variant-caps:normal;font-variant-ligatures:normal;font-variant-numeric:normal;font-variant-position:normal;image-rendering:auto;isolation:auto;mix-blend-mode:normal;paint-order:normal;shape-padding:0;shape-rendering:auto;solid-color:#000000;text-decoration-color:#000000;text-decoration-line:none;text-decoration-style:solid;text-indent:0;text-orientation:mixed;text-transform:none;white-space:normal"/>
<path d="m52.925 191.2v26.444l0.06007-0.0269v0.0315a26.489 26.466 0 0 0 26.379-26.449h-5.2977a21.191 21.173 0 0 1-15.843 20.459v-20.459z" style="fill:#292929;paint-order:normal"/>
<path d="m32.797 201.78a31.787 31.759 0 0 1 2.4492 5.2931h12.44v-5.2931z" style="fill:#292929;paint-order:normal"/>
<path d="m36.648 212.37a31.787 31.759 0 0 1 0.44962 5.2931h10.588v-5.2931z" style="fill:#292929;paint-order:normal"/>
<path d="m5.3112 191.19v26.466h26.489c0-14.612-11.853-26.459-26.478-26.465zm5.3092 5.9956c7.4458 1.929 13.261 7.7379 15.193 15.177h-15.193z" style="fill:#292929;paint-order:normal"/>
<path d="m22.861 191.2a31.787 31.759 0 0 1 6.1002 5.2931h18.726v-5.2931z" style="fill:#292929;paint-order:normal"/>
<rect x=".0075411" y="185.87" width="84.659" height="37.042" style="fill:none;paint-order:normal"/>
<rect x=".0075411" y="185.87" width="84.659" height="37.042" style="fill:none;paint-order:normal"/>
</g>
</svg>
